<?xml version="1.0" encoding="UTF-8" standalone="no"?>
<svg
   xmlns:dc="http://purl.org/dc/elements/1.1/"
   xmlns:cc="http://creativecommons.org/ns#"
   xmlns:rdf="http://www.w3.org/1999/02/22-rdf-syntax-ns#"
   xmlns:svg="http://www.w3.org/2000/svg"
   xmlns="http://www.w3.org/2000/svg"
   xmlns:sodipodi="http://sodipodi.sourceforge.net/DTD/sodipodi-0.dtd"
   xmlns:inkscape="http://www.inkscape.org/namespaces/inkscape"
   version="1.1"
   id="Globe"
   x="0px"
   y="0px"
   width="16"
   height="16"
   viewBox="0 0 16 16"
   enable-background="new 0 0 100 100"
   xml:space="preserve"
   inkscape:version="0.48.3.1 r9886"
   sodipodi:docname="favicon.svg"><metadata
   id="metadata13"><rdf:RDF><cc:Work
       rdf:about=""><dc:format>image/svg+xml</dc:format><dc:type
         rdf:resource="http://purl.org/dc/dcmitype/StillImage" /></cc:Work></rdf:RDF></metadata><defs
   id="defs11" /><sodipodi:namedview
   pagecolor="#ffffff"
   bordercolor="#666666"
   borderopacity="1"
   objecttolerance="10"
   gridtolerance="10"
   guidetolerance="10"
   inkscape:pageopacity="0"
   inkscape:pageshadow="2"
   inkscape:window-width="1688"
   inkscape:window-height="1007"
   id="namedview9"
   showgrid="true"
   inkscape:zoom="36.725358"
   inkscape:cx="8"
   inkscape:cy="8"
   inkscape:window-x="-9"
   inkscape:window-y="24"
   inkscape:window-maximized="0"
   inkscape:current-layer="Globe"><inkscape:grid
     type="xygrid"
     id="grid2990"
     empspacing="5"
     visible="true"
     enabled="true"
     snapvisiblegridlinesonly="true"
     spacingx="0.25px"
     spacingy="0.25px" /></sodipodi:namedview>
<polygon
   id="Islands_4_"
   clip-rule="evenodd"
   points="39.214,35.619 39.775,37.752 38.764,37.752 38.764,38.763 39.888,39.438 42.023,38.316 41.349,37.191 40.562,34.943 41.124,34.27 40.786,32.697 38.764,34.27 "
   style="fill-rule:evenodd"
   transform="translate(0,-84)" />
<polygon
   id="Islands_3_"
   clip-rule="evenodd"
   points="36.293,38.316 37.978,37.529 38.426,36.18 37.753,35.507 35.955,36.741 "
   style="fill-rule:evenodd"
   transform="translate(0,-84)" />
<polygon
   id="Islands_2_"
   clip-rule="evenodd"
   points="38.426,26.967 37.529,26.068 35.73,25.957 35.843,27.303 38.09,27.866 "
   style="fill-rule:evenodd"
   transform="translate(0,-84)" />
<polygon
   id="Islands_1_"
   clip-rule="evenodd"
   points="49.55,19.662 50.338,18.989 50.899,19.212 51.011,18.316 50.338,17.978 50.785,16.855 48.764,17.978 "
   style="fill-rule:evenodd"
   transform="translate(0,-84)" />
<polygon
   id="Islands"
   clip-rule="evenodd"
   points="53.37,15.957 54.831,16.18 55.28,15.73 54.158,15.169 "
   style="fill-rule:evenodd"
   transform="translate(0,-84)" />
<path
   sodipodi:type="arc"
   style="fill:#e2e8ec;fill-opacity:1;stroke:none"
   id="path3765"
   sodipodi:cx="8.5"
   sodipodi:cy="8.5"
   sodipodi:rx="6.5"
   sodipodi:ry="6.5"
   d="m 15,8.5 a 6.5,6.5 0 1 1 -13,0 6.5,6.5 0 1 1 13,0 z"
   transform="matrix(1.0576923,0,0,1.0384615,-0.11538471,-0.32692311)" /><path
   id="Earth"
   clip-rule="evenodd"
   d="m 8.7436046,1.6410836 c -3.3562962,0 -6.9523277,2.7154928 -6.9523277,6.9523276 0,4.3152378 3.3562962,6.9523278 6.9523277,6.9523278 4.2368314,0 7.1920594,-3.596032 7.1920594,-6.9523278 0,-4.2368348 -2.955228,-6.9523276 -7.1920594,-6.9523276 z m -6.611328,6.9523276 c 0,-1.401896 0.4375843,-2.7008402 1.1818767,-3.7705589 l 0.085307,0.063981 -0.051554,0.2069779 0.1894869,0.05186 -0.034522,-0.2758684 0.1551185,-0.017184 0,-0.3620964 0.1551184,0 c 0,0 0.02731,0.070271 0.056003,0.1439179 0.031454,0.081012 0.064747,0.1663187 0.064747,0.1663187 l 0.1723027,0.189794 c 0,0 -0.2068245,0.051398 -0.275715,0.051398 -0.068891,0 -0.034522,0.2758683 -0.034522,0.2758683 L 4.0371184,5.4038943 4.1930041,5.1160583 4.5543334,4.7145302 4.726636,4.1802847 5.0542104,3.8697409 4.8645702,3.7322671 5.0715482,3.5943329 5.0887324,3.4045391 4.485443,3.5768418 4.4664176,3.554134 C 4.7949127,3.2750437 5.1507184,3.0274066 5.5298456,2.8161325 l 0.2829262,0.1232048 -0.1894869,0.3620964 -0.3794341,0 -0.069044,0.3272677 0.3103902,0 L 5.9333678,3.352833 6.2437586,3.0427496 6.2953116,2.749697 5.8471404,2.715328 6.1573774,2.50835 6.4504299,2.56021 6.3988769,2.8702935 6.7953418,2.62864 6.8643858,2.8184338 6.9506138,3.0943022 6.7264517,3.3701706 6.4851051,3.5941792 6.1230087,3.5423192 6.2954648,3.9042622 5.9678903,3.8525552 5.416307,4.4214763 l 0.1379342,0.1897936 0.448171,-0.034675 0.3792807,-0.1209034 0.4828462,-0.0514 0.2240088,-0.051706 c 0,0 0,-0.1379342 -0.017337,-0.2240088 -0.017031,-0.086228 0.1724562,0.017031 0.1724562,0.017031 L 7.4506442,4.0251663 7.6057626,3.5423198 8.1745302,3.2834823 8.0884557,3.1458549 8.2263898,2.9732456 7.7782187,2.9042017 7.8988153,2.731899 7.3298943,2.5421053 l -0.2930526,0 0.103413,-0.2583772 0.1205965,-0.1209034 -0.00967,-0.00967 c 0.479781,-0.1106195 0.9788911,-0.1710712 1.4924235,-0.1710712 0.8002945,0 1.5671403,0.1422302 2.2770613,0.4027556 l -0.01719,0.040659 -0.287068,-0.019178 0,0.1726094 0.114918,0.076562 0,0.1531238 0.09559,0.1339442 -0.344449,-0.2105064 -0.229685,0.1149196 0.114919,0.2683502 0.05738,0.3062477 0.153123,0.1726095 0.363629,0.057383 -0.07656,0.1531239 -0.07657,0.2301459 0.325734,0.210507 -0.01917,0.095741 -0.612796,-0.5172157 -0.0382,0.1917884 0.267887,0.2680433 0.153123,0.057383 -0.344449,0.076562 -0.03836,0.1726096 -0.248713,-0.249325 -0.153584,-0.3254264 -0.05738,-0.3257333 -0.1535842,0.1914815 0.1152262,0.4596782 0.191481,0.1344053 -0.07656,0.4401926 -0.114919,-0.057537 0.01918,0.2301461 -0.1726094,-0.019179 -0.1723027,-0.2493249 -0.2105069,0 -0.3065544,-0.038358 -0.306708,0.019179 -0.2870688,0.2301459 -0.1916349,0.3254265 -0.4022952,0.3065545 -0.038357,0.1723026 0,0.2109672 0.095741,0.210507 0.191635,-0.153124 0.057383,0.1147663 0.095894,0.1723026 0.019178,0.038664 0.095741,0.1149196 L 8.7436046,6.4291181 8.7244258,6.007644 8.9349326,5.7392938 c 0,0 0.010735,-0.045416 0.022707,-0.097736 0.016264,-0.06981 0.03483,-0.1511292 0.03483,-0.1511292 l 0.076408,-0.2109673 0.1344054,0.01918 -0.038205,0.1726095 -0.077022,0.3828095 0.3643977,-0.038358 0.1340984,0.038358 -0.287529,0.076868 0.038205,0.1914814 -0.3257335,0.2105075 0.01918,0.2109672 -0.2870688,0.076716 -0.057384,0.1531238 -0.2299925,-0.076562 -0.1532772,0 0,-0.3257335 -0.1724562,0.057843 0,0.1723027 L 7.6516385,6.984844 7.3834417,7.0805847 7.268522,7.2145297 6.8852522,7.118789 6.8660733,7.2910917 7.1150914,7.3871393 7.0959126,7.7315912 6.4062417,7.7124123 6.3105009,7.8655361 6.2147601,8.1338864 6.0996872,8.3640323 6.2721433,8.5555138 6.4637781,8.7851996 7.077194,8.5934112 7.1155517,8.3637255 7.2498035,8.2484991 7.4796427,8.1719371 7.4604638,8.0188133 l 0.2108138,-0.057536 0.306401,-0.057383 0.191635,0.2296859 0.3447587,0.2493249 0.1532772,0.248711 0,0.1149195 L 8.8586776,8.6316155 8.7630903,8.4594663 8.8012945,8.267678 8.6289918,8.191116 8.4757147,7.9806091 8.5714554,7.6739012 8.7436046,7.9230726 8.9924692,8.1145541 9.088056,8.4594663 9.3372274,8.6507944 9.3950704,8.8617615 9.5099899,8.6125901 9.4716319,8.4976705 9.5290151,8.4019293 9.8926458,8.0953747 9.9692074,7.7121049 10.122791,7.5971852 l 0.191328,0.019178 0.287528,-0.2875291 0.01918,0.2301459 0.421012,0.133945 0,0.2109672 -0.344451,0 -0.517212,0.2678907 -0.4214741,0.2301462 0.1149197,0.2488644 0.3831154,0.076562 0.210967,0.095741 0.229685,-0.1531238 0.01903,0.651467 -0.65147,0.133944 L 9.3760449,9.2635954 9.1076947,9.4745629 9.2224608,9.5893292 9.0114937,9.5511247 8.3413086,9.3019537 8.1498271,9.321435 7.9965497,9.072264 l 0,-0.3065544 -0.344912,0 L 7.460157,8.7273556 6.8470481,8.8617609 6.3681908,8.8230959 6.1575306,8.9383224 l -0.1340984,0.019179 -0.076715,0.248711 -0.4404995,0.3067078 -0.613109,0.4596786 -0.038358,0.5936232 -0.1724561,0.383271 0.019179,0.229532 0.1532773,0.268349 0.4406529,0.746901 0.4596782,0.210814 0.7662329,0.05754 -0.038358,-0.325888 -0.1724561,-0.09559 0.076562,-0.172303 0.1342519,0.153126 0.133945,0.402294 0.5747512,0.03836 0.2298392,0.229532 0.3255799,0.134404 0.038358,0.55542 0.3449122,0.440653 0.3255799,0.574445 -0.2872222,0.344911 0.2933593,0.456457 C 4.9621521,15.070488 2.1322766,12.163129 2.1322766,8.5934112 z m 8.8767284,6.2127148 0.79922,-0.581041 -0.287069,-0.709004 0.91951,-1.206425 0.287069,-0.766387 0.133946,-0.421473 -0.478397,0.230145 -0.28753,0.05739 -0.708543,-0.440657 -0.210813,-0.478858 -0.268351,-0.268349 -0.344603,-0.7659268 0.287067,0.2296863 0.5367,0.5937765 0.191482,0.26835 0.382656,0.191328 0.115226,0.498036 0.459832,-0.306247 0.55542,-0.689824 L 13.360024,9.532103 13.149209,9.3599531 13.03429,9.1489862 12.900038,9.3981576 12.631994,9.704406 12.248878,9.282931 12.134112,8.9576581 l 0.268196,0.057383 0.268045,0.1339451 0.383116,-0.1339451 0.230146,0.076562 0.612341,-0.4214742 0.345374,0.1917884 0.210505,-0.1152265 0.457992,0.721124 0.226924,-0.2163373 0.0044,-0.274794 0.01904,-0.823772 0.140849,-0.3903275 c 0.03422,0.2723395 0.05386,0.5492817 0.05386,0.8309804 0,2.8551906 -1.810329,5.2878336 -4.345925,6.2125616 z"
   inkscape:connector-curvature="0"
   style="fill:#2636a1;fill-opacity:1;fill-rule:evenodd;stroke:none"
   sodipodi:nodetypes="sssssscccccccccccsccccccccccccccccccccccccccccccccccccccccccccccccccccsccccccccccccccccccccccccccccccccccccccccccccccccccccccccccccccccccccccccccccccccccccccccccccccccccccccccccccccccccccccccccccccccccccccccccccccccccccccccccccccccccsccccccccccccccccccccccccccccccccccccccscc" />
<path
   transform="matrix(-0.81829473,-0.57479887,-0.57479887,0.81829473,21.925593,9.5899571)"
   style="fill:none;stroke:#db2424;stroke-width:0.50000000000000000;stroke-linecap:round;stroke-linejoin:round;stroke-miterlimit:4;stroke-opacity:1;stroke-dashoffset:0;stroke-dasharray:none"
   d="M 4.3816824,7.5506157 C 3.4730244,7.1813822 3.25,6.8460248 3.25,6.375 3.25,5.0633237 7.3354017,4 12.375,4 17.414598,4 21.5,5.0633237 21.5,6.375 c 0,0.7976423 -0.874962,1.3615976 -3.192363,1.7922919"
   id="path3762"
   inkscape:connector-curvature="0"
   sodipodi:nodetypes="csssc" /></svg>